<?xml version="1.0" encoding="UTF-8"?>
<!-- Generator: Adobe Illustrator 16.0.0, SVG Export Plug-In . SVG Version: 6.00 Build 0)  -->
<!DOCTYPE svg PUBLIC "-//W3C//DTD SVG 1.1//EN" "http://www.w3.org/Graphics/SVG/1.1/DTD/svg11.dtd">
<svg version="1.1" id="Layer_1" xmlns="http://www.w3.org/2000/svg" xmlns:xlink="http://www.w3.org/1999/xlink" x="0px" y="0px" width="847.067px" height="220px" viewBox="0 0 847.067 220" enable-background="new 0 0 847.067 220" xml:space="preserve">
<g>
	<path d="M115.552,157.058c-5.753,0-11.438-0.709-17.057-2.123c-5.621-1.415-10.996-3.362-16.127-5.841   c-0.089,0-0.222-0.044-0.398-0.133c-0.179-0.087-0.398-0.176-0.664-0.266c-0.444-0.266-0.775-0.552-0.996-0.862   c-0.222-0.31-0.332-0.552-0.332-0.73c0-0.087,0.485-1.039,1.46-2.854c0.973-1.813,2.124-3.87,3.451-6.172   c1.238-2.035,2.389-4.003,3.451-5.907c1.062-1.902,1.945-3.429,2.655-4.579c0.973,0.443,1.703,0.775,2.19,0.995   c0.485,0.222,0.95,0.465,1.394,0.73c3.893,1.947,7.786,3.451,11.681,4.513c3.893,1.062,7.964,1.593,12.212,1.593   c0.618,0,1.215,0,1.792,0c0.575,0,1.172-0.044,1.792-0.133c1.328,0,2.522-0.176,3.584-0.531c1.062-0.441,1.968-1.062,2.721-1.857   c0.751-0.797,1.128-1.991,1.128-3.584c0-1.149-0.444-2.058-1.328-2.722c-0.886-0.663-1.814-1.215-2.788-1.659   c-0.62-0.266-1.194-0.485-1.726-0.663c-1.505-0.618-3.032-1.083-4.579-1.395c-1.549-0.309-3.119-0.641-4.712-0.995   c-2.124-0.441-4.204-0.906-6.238-1.394c-2.037-0.485-4.028-0.996-5.973-1.526c-2.037-0.618-3.938-1.305-5.708-2.058   c-1.771-0.751-3.451-1.613-5.044-2.589c-3.274-2.034-5.886-4.712-7.831-8.03c-1.948-3.318-2.92-7.719-2.92-13.207   c0-3.893,0.84-7.653,2.522-11.282c1.68-3.539,3.827-6.438,6.438-8.694c2.609-2.257,5.508-4.049,8.694-5.376   c3.186-1.327,6.504-2.233,9.956-2.722c3.451-0.484,6.902-0.729,10.353-0.729c5.662,0,11.304,0.709,16.924,2.124   c5.618,1.416,11.127,3.806,16.525,7.167c-2.037,3.451-3.938,6.749-5.708,9.89c-1.771,3.142-3.673,6.438-5.708,9.889   c-4.513-2.3-8.74-4.092-12.677-5.376c-3.938-1.282-8.163-1.925-12.676-1.925c-0.885,0-1.881,0.022-2.986,0.066   c-1.107,0.046-2.124,0.245-3.053,0.598c-0.929,0.354-1.726,0.886-2.389,1.593c-0.664,0.709-0.996,1.726-0.996,3.053   c0,0.797,0.22,1.549,0.664,2.257c0.353,0.709,1.128,1.307,2.323,1.792c1.194,0.487,2.808,0.995,4.845,1.526   c1.945,0.53,4.092,1.041,6.438,1.526c2.343,0.487,4.755,1.085,7.234,1.792c2.477,0.62,4.999,1.35,7.566,2.189   c2.565,0.843,4.978,1.904,7.234,3.187c2.256,1.283,4.291,2.787,6.106,4.513c1.813,1.726,3.252,3.783,4.313,6.172   c0.797,1.771,1.348,3.674,1.66,5.708c0.309,2.037,0.464,4.027,0.464,5.973c0,5.841-1.174,10.619-3.518,14.336   c-2.346,3.717-5.398,6.683-9.159,8.894c-3.762,2.213-7.964,3.737-12.61,4.579C124.777,156.637,120.152,157.058,115.552,157.058z"/>
	<path d="M202.627,128.121h-15.356v26.149h-25.22V66.797h40.484c4.334,0,8.516,0.776,12.543,2.323   c4.026,1.55,7.587,3.717,10.686,6.504c3.096,2.788,5.575,6.063,7.433,9.822c1.858,3.763,2.788,7.812,2.788,12.146   c0,4.426-0.927,8.495-2.781,12.212c-1.854,3.717-4.302,6.925-7.346,9.623c-3.045,2.701-6.598,4.824-10.656,6.372   C211.141,127.348,206.949,128.121,202.627,128.121z M201.787,88.035h-14.118v16.857h14.118c2.288,0,4.223-0.817,5.807-2.456   c1.583-1.636,2.375-3.517,2.375-5.641c0-2.211-0.815-4.225-2.441-6.04C205.9,88.943,203.985,88.035,201.787,88.035z"/>
	<path d="M407.612,89.495h-22.565v64.775h-24.954V89.495h-22.565l-2.124-2.124V66.797h74.332v20.574L407.612,89.495z"/>
	<path d="M451.706,154.271l-4.381-11.813h-24.954l-4.38,11.813H392.24l31.989-87.474h21.238l31.989,87.474H451.706z    M434.848,103.831l-5.575,16.99h11.149L434.848,103.831z"/>
	<path d="M547.319,154.271v-40.883L531.39,139.67c-0.443,0.709-1.019,1.174-1.726,1.394c-0.709,0.222-1.327,0.332-1.858,0.332   c-0.443,0-1.018-0.11-1.726-0.332c-0.709-0.22-1.283-0.685-1.726-1.394l-15.928-26.282v40.883h-24.689V66.797h22.034   c1.149,0,2.124,0.531,2.921,1.594l19.113,31.856l19.247-31.856c0.618-1.063,1.547-1.594,2.787-1.594h22.034v87.474H547.319z"/>
	<path d="M731.688,154.271l-26.945-42.343v42.343h-24.689V66.797h24.158l26.945,42.608V66.797h24.689v87.474H731.688z"/>
	<g>
		<path fill-rule="evenodd" clip-rule="evenodd" d="M626.918,168.524c-32.361,0.036-58.645-26-58.725-58.173    c-0.08-32.387,26.203-58.866,58.441-58.876c32.168-0.012,58.5,26.268,58.559,58.441    C685.252,142.215,659.127,168.488,626.918,168.524z M662.25,75.721c-5.807,5.818-11.598,11.62-17.412,17.445    c10.6,12.511,6.883,26.395,0.029,33.801c-3.881,4.193-8.65,6.857-14.273,7.686c-8.191,1.204-15.451-1.069-21.041-6.321    c-5.967,5.975-11.689,11.702-17.414,17.435c18.393,19.133,51.223,18.755,70.191-0.989    C682.836,123.43,679.348,91.624,662.25,75.721z M626.743,93.212c-9.441-0.046-17.055,7.432-17.121,16.815    c-0.064,9.318,7.568,17.03,16.91,17.084c9.369,0.053,17.023-7.497,17.107-16.875C643.723,100.845,636.192,93.257,626.743,93.212z"/>
		<path fill-rule="evenodd" clip-rule="evenodd" fill="#FF0000" d="M662.25,75.721c17.098,15.903,20.586,47.709,0.08,69.056    c-18.969,19.744-51.799,20.122-70.191,0.989c5.725-5.732,11.447-11.46,17.414-17.435c5.59,5.252,12.85,7.525,21.041,6.321    c5.623-0.828,10.393-3.492,14.273-7.686c6.854-7.406,10.57-21.29-0.029-33.801C650.653,87.341,656.444,81.539,662.25,75.721z"/>
		<path fill-rule="evenodd" clip-rule="evenodd" fill="#FFFFFF" d="M626.743,93.212c9.449,0.045,16.98,7.633,16.896,17.024    c-0.084,9.378-7.738,16.928-17.107,16.875c-9.342-0.054-16.975-7.766-16.91-17.084C609.688,100.644,617.301,93.166,626.743,93.212    z"/>
	</g>
</g>
<g>
	<path fill-rule="evenodd" clip-rule="evenodd" d="M291.113,50.685c-32.817,0.105-58.632,26.545-59.266,57.977   c-0.686,33.994,26.8,60.471,58.853,60.653c33.128,0.189,59.566-26.674,59.76-58.883C350.657,77.362,323.775,50.694,291.113,50.685z    M290.844,160.018c-27.522-0.144-49.812-22.283-49.71-50.24c0.101-27.684,22.36-49.666,50.044-49.833   c27.77,0.207,50.079,22.339,49.985,50.264C341.071,137.854,318.811,160.165,290.844,160.018z"/>
	<path fill-rule="evenodd" clip-rule="evenodd" fill="#0093D3" d="M251.216,107.738c5.523-0.012,11.047-0.012,16.57,0.002   c0.695,0.002,0.9-0.299,1.051-0.962c0.424-1.859,0.776-3.773,1.511-5.516c2.12-5.021,5.662-8.788,10.533-11.299   c4.394-2.265,9.063-2.874,13.881-2.178c3.43,0.496,6.578,1.855,9.437,3.861c3.729,2.615,6.398,6.066,8.04,10.283   c0.575,1.475,0.916,3.057,1.211,4.617c0.198,1.045,0.18,1.18,1.273,1.183c2.675,0.008,5.349,0.003,8.024,0.003   c0-0.003,0-0.004,0-0.007c2.617,0,5.233-0.002,7.849,0.001c1.388,0.002,1.478-0.087,1.34-1.507   c-0.54-5.534-2.06-10.789-4.736-15.662c-4.158-7.568-10.107-13.329-17.831-17.224c-5.625-2.837-11.625-4.219-17.894-4.291   c-5.093-0.058-10.044,0.863-14.835,2.664c-7.068,2.655-12.864,7.044-17.583,12.867c-3.671,4.531-6.216,9.671-7.573,15.346   c-0.538,2.251-0.78,4.572-1.142,6.864C250.239,107.438,250.523,107.739,251.216,107.738z"/>
	<path fill-rule="evenodd" clip-rule="evenodd" fill="#0093D3" d="M331.015,112.254c-1.86,0.032-3.72,0.011-5.581,0.01   c-3.517,0-7.033-0.002-10.551,0.001c-1.292,0.001-1.313,0.035-1.414,1.285c-0.03,0.374-0.105,0.747-0.192,1.113   c-1.64,6.935-5.576,12.1-11.915,15.394c-4.353,2.261-9.029,2.942-13.796,2.154c-6.798-1.123-12.118-4.698-15.769-10.591   c-1.558-2.516-2.639-5.249-2.957-8.217c-0.091-0.854-0.372-1.162-1.226-1.151c-2.703,0.035-5.406,0.013-8.109,0.012   c-2.587-0.001-5.173-0.001-7.76-0.001c-1.444-0.001-1.583,0.099-1.374,1.545c0.277,1.922,0.593,3.845,0.995,5.744   c1.048,4.956,3.156,9.466,6.025,13.608c3.159,4.559,7.073,8.345,11.759,11.361c2.958,1.905,6.085,3.432,9.417,4.46   c4.94,1.524,9.997,2.243,15.208,1.871c5.137-0.367,10.028-1.595,14.686-3.742c3.444-1.589,6.694-3.533,9.418-6.201   c2.151-2.107,4.331-4.229,6.177-6.594c2.969-3.807,5.146-8.101,6.354-12.792c0.7-2.715,1.05-5.521,1.537-8.29   C332.071,112.537,331.745,112.241,331.015,112.254z"/>
	<path fill-rule="evenodd" clip-rule="evenodd" fill="#0093D3" d="M291.242,92.606c-9.883-0.047-17.506,7.579-17.492,17.43   c0.015,9.764,7.577,17.196,17.306,17.401c9.917-0.152,17.457-7.612,17.487-17.388C308.573,100.166,300.951,92.653,291.242,92.606z"/>
</g>
<path fill-rule="evenodd" clip-rule="evenodd" d="M291.113,50.685c-32.817,0.105-58.632,26.545-59.266,57.977  c-0.686,33.994,26.8,60.471,58.853,60.653c33.128,0.189,59.566-26.674,59.76-58.883C350.657,77.362,323.775,50.694,291.113,50.685z   M290.844,160.018c-27.522-0.144-49.812-22.283-49.71-50.24c0.101-27.684,22.36-49.666,50.044-49.833  c27.77,0.207,50.079,22.339,49.985,50.264C341.071,137.854,318.811,160.165,290.844,160.018z"/>
</svg>