<svg version="1" xmlns="http://www.w3.org/2000/svg" width="506.667" height="506.667" viewBox="0 0 380.000000 380.000000"><path d="M227 88.5c-14.3 2.6-28.5 9.7-39.4 19.6l-6.2 5.7-7.2-2.4c-11-3.7-18-4-28.7-1.2-8 2-9.5 2.2-13 1-2.8-.9-8.8-1.2-20.2-1-15 .3-16.4.5-19.2 2.6-2.9 2.1-3.3 2.2-6 .7-1.6-.8-6.4-2.4-10.8-3.6-26.7-7.5-56 4.9-64.5 27.3-1.1 2.9-3 7-4.3 9.2-5.6 9.7-5.2 24.8 1.1 35.2l3.2 5.3-2.4 3.3c-1.4 1.8-2.7 5-3.1 7.2-.3 2.2-1.7 5.1-3 6.4-2.7 2.7-3.9 7.6-2.9 11.7.4 1.4 2.3 4.4 4.3 6.6 8 8.9 18.3 13.8 34.6 16.5 9.9 1.7 10.5 1.7 20.3-.3 5.5-1.1 12.5-3.2 15.4-4.6 3-1.4 5.8-2.3 6.2-2 .5.3.8 8.7.7 18.7-.3 16.6-.1 18.6 1.7 21.7 3.7 6.4 6.4 7 28.1 6.7 17.7-.3 19.4-.5 22-2.4 1.9-1.5 3.1-3.5 3.8-6.8.6-2.6 1.9-5.5 3.1-6.4 4.2-3.5 4.8-5.3 5.3-15.5l.6-10.1 8.6-1.7c4.7-.9 10-2.4 11.7-3.3 4.5-2.3 5.8-2 8.3 2.1 10.4 17 59.9 81.3 62.6 81.3.6 0 1.8.8 2.5 1.9 1.3 1.8 1.5 1.7 4.9-1.3 5.8-5 44.2-53.7 59.2-75 1.3-1.8 1.9-1.9 9.3-.8 11.9 1.6 27.7-.9 35.4-5.7 9.2-5.7 15.8-12.5 26.8-27.5 2.2-3.1 2.9-5.2 1.3-4.2-.5.3-1.2-.6-1.6-2.2-1.3-5.5-14.9-33.2-16.2-33.2-1.9 0-5.1 1.7-9.5 5.2-5.1 4-6.2 3-5.5-5.1.9-8.9 1.9-9.6 14.6-10.5 5.6-.4 10.2-1.1 10.4-1.4.2-.4-.6-7-1.9-14.7-1.3-7.7-2.3-14.7-2.3-15.5.3-3.6-.3-5-3.1-7.9-2.1-2-4.5-3.2-7.5-3.7l-4.5-.6v-5.2c0-5.7-2.4-10.7-6.2-12.7-2.3-1.3-30.5-1.5-36.3-.3-4.1.8-8.3 5.1-9.1 9.1-.3 1.8-1 3.3-1.5 3.3s-3.7-2.1-7.1-4.6C271 89.6 249.4 84.5 227 88.5zm32.4 16.6c9.8 2.9 19.8 8.3 26.4 14.3 4.9 4.6 6 5.1 11.3 5.6 8.8.9 9.5.3 10.9-8.2 1.9-12 .1-10.8 16.6-10.8h14.6l-.6 2.7c-.3 1.6-.8 5.3-1.1 8.3-.4 3-.9 6.3-1.1 7.2-.5 1.6.4 1.8 8.9 1.8h9.4l.6 7.2c.4 4 1 10.1 1.3 13.5l.7 6.2h-12.4l-12.4-.1-.7 4.9c-.5 2.6-.9 8.3-1 12.5-.3 6.4 0 8.1 1.8 10.5 4.6 6.2 10.6 6.2 17.2 0 1.9-1.9 3.5-2.7 4.1-2.1.4.5 2.4 5.6 4.5 11.3l3.6 10.4-2.5 3.3c-5.5 7.2-13 11.1-23.9 12.5-14.6 1.9-26.3-2.3-31.9-11.3l-3.1-4.9-1.7 3.3c-9.1 17.2-33.1 31.4-54.9 32.5-6.1.3-9.3-.1-17.2-2.5-20-6.1-33.7-17.1-41.3-33.3l-1.7-3.5-5.4 5.2c-5.7 5.6-12.5 8.8-21.2 10-5.7.7-17.1-1-21.5-3.3l-3-1.5.7 23.1.8 23.1H100v-60.9c0-33.4.3-62.9.6-65.5l.7-4.6H129v2.7c0 5.3 1.3 5.7 6.6 2.3 7.6-4.8 17.3-7.4 25.1-6.7 8.1.8 17.1 5.4 22.1 11.3l3.5 4.3 2.8-4.4c5.9-9.3 17.1-18.7 27.5-23.2 13.2-5.6 30.4-6.9 42.8-3.2zM76.5 122.2c6.2 2 18.3 8.6 20.4 11.1.9 1.2 0 3.3-5 11l-6.1 9.6-5.7-2.9c-5.6-2.9-15.7-6-19.6-6-3.8 0-9.5 2.1-10.4 3.8-1.9 3.5.3 4.3 14 5.8 11.3 1.2 14.4 1.9 19.7 4.5 15.8 7.7 18.5 24.6 6.6 40.5-3.2 4.4-12.6 10.4-19.6 12.6-16.3 5-38.5.3-50.3-10.6l-2.7-2.5 6.4-7.3c3.6-4 7.5-8.5 8.7-10l2.3-2.6 3.5 2.4c3.9 2.6 12.2 5.4 16.2 5.4 4.3 0 9.7-1.9 11.6-4 2.9-3.3.5-5-7.1-5-21.7 0-37.5-12-37.5-28.5 0-7.2 2.7-13 9.2-19 11.5-10.7 28.5-13.8 45.4-8.3z"/><path d="M236.5 113.7c-17.7 2.1-35.1 14.4-42.8 30.3-4.2 8.5-5.7 15.2-5.8 25.5-.2 22.1 14.6 43.6 35.5 51.4 32.4 12.1 67.2-7.6 74.2-41.9 2.8-13.9-.3-28.3-8.7-40.9-11.4-17.1-32.4-26.9-52.4-24.4zm20.7 12.4c15.3 5.1 26.4 17.6 30.2 33.9 1.2 4.9 1.2 6.2.2 6.6-.7.3-5.2.4-10.1.2l-8.8-.3-1.3-4.5c-3.8-13.2-19-21-32.3-16.5-6.7 2.2-13.2 8.7-15.3 15.2l-1.5 4.8-10.2.3c-11.4.3-10.9.8-8.6-8.1 2.1-8.2 4.7-12.7 11.1-19.6 5.6-6 16-12.2 22.4-13.4 7.1-1.2 18.3-.6 24.2 1.4zM252 152c10.4 5.3 13.6 19.3 6.6 28.5-9 11.8-27.2 9.2-33.1-4.7-2-4.9-1.9-9.4.4-14.3 4.6-10.1 16.5-14.4 26.1-9.5zm-32.5 24.2c4 15.8 23.7 22.9 38 13.5 4.3-2.8 8.5-8.5 9.8-13.5l1.1-4.2h9.8c9.7 0 9.8 0 9.8 2.4 0 4.7-4 15.3-7.9 20.7-8.6 12.1-21.8 18.9-36.3 18.9-12.4 0-22.2-3.7-30.5-11.3-8.1-7.5-13.3-17-14.8-27l-.7-4.8 10.2.3 10.3.3 1.2 4.7zM142 151.1c-11.5 4.6-13.4 19.1-3.7 27.6 12.3 10.8 27.7 3.3 26.5-12.9-.5-6.5-2.5-9.9-7.8-13.6-3.6-2.4-10.4-2.9-15-1.1z"/></svg>